<svg xmlns="http://www.w3.org/2000/svg" width="111.392" height="108.607" viewBox="0 0 111.392 108.607">
  <path id="Icon_simple-adobeillustrator" data-name="Icon simple-adobeillustrator" d="M48.873,48.859c-.464-1.439-.882-2.831-1.346-4.27s-.882-2.785-1.253-4.131c-.371-1.3-.7-2.506-1.021-3.62H45.16a56.988,56.988,0,0,1-1.578,5.987c-.7,2.228-1.392,4.548-2.135,6.869-.65,2.367-1.346,4.548-2.042,6.5H51.194c-.278-.979-.65-2.135-1.067-3.346-.418-1.249-.835-2.595-1.253-3.987ZM91.666.45H19.726A19.709,19.709,0,0,0,0,20.176V89.331a19.709,19.709,0,0,0,19.726,19.726h71.94a19.709,19.709,0,0,0,19.726-19.726V20.176A19.709,19.709,0,0,0,91.666.45ZM68.227,77.171h-9.7a.7.7,0,0,1-.738-.511L53.979,65.614H36.713L33.185,76.521a.82.82,0,0,1-.882.654H23.578c-.511,0-.65-.283-.511-.835l14.945-43.03c.139-.464.278-.975.464-1.532a16.212,16.212,0,0,0,.278-3.017.46.46,0,0,1,.371-.511H51.147c.371,0,.557.139.6.371L68.692,76.428C68.831,76.934,68.692,77.171,68.227,77.171Zm15.78-.7c0,.511-.181.743-.6.743h-9.1a.651.651,0,0,1-.7-.743V40.737c0-.464.19-.65.608-.65h9.19c.418,0,.6.232.6.65Zm-.97-41.911a5.477,5.477,0,0,1-4.228,1.624,5.762,5.762,0,0,1-4.135-1.624,6.034,6.034,0,0,1-1.578-4.27,5.474,5.474,0,0,1,1.666-4.131,5.983,5.983,0,0,1,4.14-1.624,5.558,5.558,0,0,1,4.224,1.624,5.86,5.86,0,0,1,1.532,4.131A5.889,5.889,0,0,1,83.038,34.564Z" transform="translate(0 -0.45)" fill="#f2eeea"/>
</svg>
