<?xml version="1.0" encoding="utf-8"?>
<!-- Generator: Adobe Illustrator 28.0.0, SVG Export Plug-In . SVG Version: 6.00 Build 0)  -->
<svg version="1.1" id="Layer_1" xmlns="http://www.w3.org/2000/svg" xmlns:xlink="http://www.w3.org/1999/xlink" x="0px" y="0px"
	 viewBox="0 0 1668.28 1429.07" style="enable-background:new 0 0 1668.28 1429.07;" xml:space="preserve">
<g>
	<g>
		<line x1="739.28" y1="312.14" x2="938.46" y2="783.48"/>
		<path d="M950.18,825.69l93.68,223.97c28.29,66.61,42.46,121.08,42.46,163.44c0,29.08-11.53,51.19-34.53,66.29
			c-23.03,15.14-62.43,25.14-118.17,29.97v27.24h579.9v-25.45c-29.08-6.08-52.12-12.18-69.07-18.29
			c-19.4-9.77-42.45-27.75-69.11-53.99s-60.62-90.02-101.8-191.31L859.1,56.41l-12.73-27.3c-4.85-6.05-10.9-9.1-18.18-9.1
			c-10.9,0-17.57,3.81-19.99,11.37l-11.31,27.84l-79.88,196.7L950.18,825.69z"/>
	</g>
	<path d="M726.91,541.94c1.96-48.98,24.63-84.5,68.17-106.57c38.06-19.28,79.23-25.77,121.24-26.34c27.75-0.38,55.57,3.3,83.29,2.62
		c13.52-0.33,26.9-6.48,40.35-9.99c-5.45-12.11-8.44-26.34-16.74-35.98c-51.58-59.89-119.91-86.25-196.65-93.56
		c-65.36-6.23-125.13,7.97-175.02,53.03c-28.15,25.42-48.57,55.8-62.28,89.41c-25.39-29.8-52.88-57.83-73.89-91.17
		c-4.48-7.11-9.69-13-15.32-17.95c38.36-28.55,84.46-49.29,137.85-60.9c131.42-28.57,260.18-11.27,385.75,32.75
		c61.6,21.59,117.58,53.34,160.14,104.56c21.07,25.36,36.2,53.62,34.31,88.03c-2.45,44.64-37.4,71.18-80.28,60.09
		c-17.65-4.56-34.65-11.82-51.72-18.44c-40.38-15.67-79.88-34.08-121.13-46.94c-48.29-15.06-98.43-18.86-148.21-5.52
		c-33.49,8.97-54.14,30.39-60.52,64.89c-0.15,0.82-0.3,1.65-0.43,2.48"/>
	<path d="M726.92,541.94c6.12,37.75-6.79,70-31.07,96.66c-22.7,24.92-46.87,50.1-74.86,68.28
		c-64.74,42.05-131.47,81.19-198.73,119.13c-60.01,33.85-116.11,72.37-164.53,121.48c-66.87,67.81-106.91,147.12-102.66,244.83
		c3.25,74.7,29.97,137.79,97.71,174.99c30.12,16.54,64.41,28.79,98.26,34.65c120.82,20.91,234.2-5.67,341.65-61.9
		c80.06-41.9,149.12-98.75,215.77-158.88c3.25-2.93,10.42-11.14,10.42-12.17c0,0-3.13-26.45-5.17-24.79
		c-71.18,57.95-148.33,106.34-233.26,141.09c-63.27,25.88-128.95,28.19-194.5,8.02c-105.16-32.35-152.78-128.37-115.97-232.09
		c15.72-44.29,40.7-83.42,73.73-115.94c40.32-39.7,82.92-77.29,126.53-113.38c51.14-42.31,102.01-84.52,140.47-139.37
		c28.4-40.49,47.14-84.27,45.11-135.1"/>
	<polygon points="1056.18,1058.1 908.46,1181.18 913.71,1144.21 1068.2,1023.38 	"/>
	<path d="M756.64,521.97c0,0-2.15,5.02-0.68,40.52l-28.8-19.04l-0.23-1.83"/>
</g>
</svg>
