<svg xmlns="http://www.w3.org/2000/svg" width="111.396" height="108.607" viewBox="0 0 111.396 108.607">
  <path id="Icon_simple-adobephotoshop" data-name="Icon simple-adobephotoshop" d="M45.719,38.139a13.62,13.62,0,0,0-5.477-.928c-1.207,0-2.274,0-3.156.046a10.627,10.627,0,0,0-1.9.046V52.9c.65.046,1.253.093,1.81.093h2.46a17.338,17.338,0,0,0,5.338-.835A7.982,7.982,0,0,0,48.6,49.7a7.172,7.172,0,0,0,1.439-4.781,7.64,7.64,0,0,0-1.068-4.131A6.73,6.73,0,0,0,45.719,38.139ZM91.67.45H19.726A19.71,19.71,0,0,0,0,20.176V89.33a19.71,19.71,0,0,0,19.726,19.726H91.67A19.71,19.71,0,0,0,111.4,89.33V20.176A19.71,19.71,0,0,0,91.67.45ZM57.365,54.524A15.867,15.867,0,0,1,49.9,60.186a30.081,30.081,0,0,1-10.443,1.578c-1.114,0-1.857,0-2.321-.046s-1.114-.046-2-.046V76.566a.582.582,0,0,1-.511.654h-9c-.371,0-.557-.19-.557-.608V28.856c0-.325.139-.511.464-.511.789,0,1.532,0,2.6-.046,1.114-.046,2.274-.046,3.528-.093s2.6-.046,4.038-.093,2.831-.046,4.224-.046a27.292,27.292,0,0,1,9.562,1.439,16.575,16.575,0,0,1,6.22,3.806A14.778,14.778,0,0,1,59.087,38.6a17.874,17.874,0,0,1,1.063,6.034,16.53,16.53,0,0,1-2.785,9.886ZM90.278,72.579a11.73,11.73,0,0,1-5.2,4.136,21.367,21.367,0,0,1-8.406,1.476,31.923,31.923,0,0,1-6.308-.6,18.912,18.912,0,0,1-4.734-1.485.906.906,0,0,1-.515-.877V67.153a.514.514,0,0,1,.19-.418.354.354,0,0,1,.418.046,19.739,19.739,0,0,0,5.755,2.274,21.555,21.555,0,0,0,5.477.7,8.848,8.848,0,0,0,3.852-.654,2.156,2.156,0,0,0,1.253-1.949,2.452,2.452,0,0,0-1.114-1.857A20.18,20.18,0,0,0,76.4,63.106a28.659,28.659,0,0,1-6.591-3.337,12.184,12.184,0,0,1-3.532-3.945,10.016,10.016,0,0,1-1.063-4.739A10.877,10.877,0,0,1,66.8,45.468,11.429,11.429,0,0,1,71.67,41.2a18.028,18.028,0,0,1,8.211-1.62A40.015,40.015,0,0,1,85.636,40a16.331,16.331,0,0,1,3.992,1.068.83.83,0,0,1,.464.418,2.33,2.33,0,0,1,.093.557V49.6a.571.571,0,0,1-.232.464,1.237,1.237,0,0,1-.835,0,16.428,16.428,0,0,0-4.456-1.578,24.468,24.468,0,0,0-5.2-.6,9.394,9.394,0,0,0-2.79.325,2.4,2.4,0,0,0-1.439.928,2.46,2.46,0,0,0-.371,1.253,2.041,2.041,0,0,0,.469,1.207,5.181,5.181,0,0,0,1.578,1.253c1.063.557,2.182,1.068,3.291,1.532a33.549,33.549,0,0,1,7.153,3.388,10.71,10.71,0,0,1,3.662,3.852A9.989,9.989,0,0,1,92.083,66.4a10.775,10.775,0,0,1-1.806,6.178Z" transform="translate(0 -0.45)" fill="#f2eeea"/>
</svg>
