<svg xmlns="http://www.w3.org/2000/svg" width="111.392" height="108.607" viewBox="0 0 111.392 108.607">
  <path id="Icon_simple-adobeindesign" data-name="Icon simple-adobeindesign" d="M19.726.45A19.709,19.709,0,0,0,0,20.176V89.331a19.709,19.709,0,0,0,19.726,19.726h71.94a19.709,19.709,0,0,0,19.726-19.726V20.176A19.709,19.709,0,0,0,91.666.45ZM72.219,24.26h9.422a.416.416,0,0,1,.464.325V68.863c0,.835.046,1.764.093,2.785.093.975.139,1.9.186,2.692a.754.754,0,0,1-.464.743,35.447,35.447,0,0,1-7.565,2.228,40.536,40.536,0,0,1-7.148.65,23.074,23.074,0,0,1-9.979-2.089,16.181,16.181,0,0,1-7.008-6.312,20.083,20.083,0,0,1-2.553-10.582,19.062,19.062,0,0,1,2.553-9.793A19.274,19.274,0,0,1,57.6,41.99,23.741,23.741,0,0,1,69.341,39.3a8.288,8.288,0,0,1,.975.046c.418.046.882.046,1.439.093V24.771C71.755,24.446,71.894,24.26,72.219,24.26ZM30.772,28.252h9.051a.524.524,0,0,1,.6.464.171.171,0,0,1,.046.139v47.62c0,.511-.232.743-.65.743h-9.1c-.418,0-.6-.232-.6-.743V28.855c0-.418.232-.6.65-.6Zm38.2,19.679a11.442,11.442,0,0,0-5.245,1.207,10.4,10.4,0,0,0-3.945,3.435,10.288,10.288,0,0,0-1.532,5.894,12.934,12.934,0,0,0,.789,4.781,9.071,9.071,0,0,0,2.089,3.3A8.019,8.019,0,0,0,64.282,68.4a12.149,12.149,0,0,0,3.852.6c.7,0,1.346-.046,1.949-.093a3.952,3.952,0,0,0,1.671-.232V48.256A11.873,11.873,0,0,0,68.97,47.931Z" transform="translate(0 -0.45)" fill="#f2eeea"/>
</svg>
