<svg xmlns="http://www.w3.org/2000/svg" width="111.392" height="108.607" viewBox="0 0 111.392 108.607">
  <path id="Icon_simple-adobexd" data-name="Icon simple-adobexd" d="M19.726.45A19.709,19.709,0,0,0,0,20.176V89.331a19.709,19.709,0,0,0,19.726,19.726h71.94a19.709,19.709,0,0,0,19.726-19.726V20.176A19.709,19.709,0,0,0,91.666.45Zm65.3,23.81h9.422a.416.416,0,0,1,.464.325V68.863c0,.835.046,1.764.093,2.785.093.975.139,1.9.186,2.692a.754.754,0,0,1-.464.743,35.447,35.447,0,0,1-7.565,2.228,40.94,40.94,0,0,1-7.148.65,23.074,23.074,0,0,1-9.979-2.089,16.181,16.181,0,0,1-7.008-6.312,20.083,20.083,0,0,1-2.553-10.582A19.062,19.062,0,0,1,70.409,41.99,23.741,23.741,0,0,1,82.151,39.3a8.287,8.287,0,0,1,.975.046c.418.046.882.046,1.439.093V24.771c0-.325.139-.511.464-.511ZM17.08,28.3H27.616a2.739,2.739,0,0,1,.65.093,1.317,1.317,0,0,1,.464.418c.882,2,1.9,3.992,2.97,5.987,1.114,2,2.181,3.945,3.342,5.894,1.114,1.949,2.135,3.9,3.11,5.894h.093c.975-2.042,2-4.038,3.017-5.987s2.089-3.9,3.156-5.848,2.089-3.945,3.11-5.848a.789.789,0,0,1,.278-.464.882.882,0,0,1,.6-.093H58.2a.428.428,0,0,1,.511.325c.046.046-.046.232-.139.325L44.649,51.969,59.5,76.336a.8.8,0,0,1,.093.557c-.046.186-.232.046-.511.093H48.455c-.743,0-1.253-.046-1.578-.511-.975-1.949-2-3.852-2.97-5.8-.975-1.9-2.042-3.852-3.156-5.848s-2.228-3.992-3.342-6.034h-.093c-.975,2-2.042,3.992-3.11,5.987S32.072,68.77,31.05,70.72c-1.068,1.949-2.135,3.945-3.2,5.848-.186.464-.557.511-1.068.511H16.57c-.186,0-.325.093-.325-.139a.65.65,0,0,1,.093-.511L30.772,52.758,16.709,28.948c-.139-.186-.186-.371-.093-.464A.538.538,0,0,1,17.08,28.3Zm64.7,19.633a11.442,11.442,0,0,0-5.245,1.207,10.4,10.4,0,0,0-3.945,3.435,10.289,10.289,0,0,0-1.532,5.894,12.934,12.934,0,0,0,.789,4.781,9.071,9.071,0,0,0,2.089,3.3A8.019,8.019,0,0,0,77.092,68.4a12.149,12.149,0,0,0,3.852.6c.7,0,1.346-.046,1.949-.093a4.059,4.059,0,0,0,1.671-.232V48.256a11.873,11.873,0,0,0-2.785-.325Z" transform="translate(0 -0.45)" fill="#f2eeea"/>
</svg>
