<svg xmlns="http://www.w3.org/2000/svg" xmlns:xlink="http://www.w3.org/1999/xlink" width="83.021" height="84.875" viewBox="0 0 83.021 84.875">
  <defs>
    <clipPath id="clip-path">
      <rect id="Прямоугольник_2" data-name="Прямоугольник 2" width="83.021" height="84.875" fill="#f2eeea"/>
    </clipPath>
  </defs>
  <g id="Сгруппировать_3" data-name="Сгруппировать 3" transform="translate(0 0)">
    <line id="Линия_1" data-name="Линия 1" x2="12.173" y2="28.8" transform="translate(35.716 17.851)" fill="#f2eeea"/>
    <g id="Сгруппировать_2" data-name="Сгруппировать 2" transform="translate(0 0)">
      <g id="Сгруппировать_1" data-name="Сгруппировать 1" clip-path="url(#clip-path)">
        <path id="Контур_1" data-name="Контур 1" d="M19.809,49.228l5.722,13.686q2.6,6.1,2.6,9.985a4.536,4.536,0,0,1-2.107,4.047q-2.113,1.39-7.223,1.835v1.662H54.232V78.894a33.749,33.749,0,0,1-4.22-1.118,18.36,18.36,0,0,1-4.226-3.3q-2.438-2.41-6.216-11.691L14.242,2.224,13.463.556A1.358,1.358,0,0,0,12.357,0c-.667,0-1.075.235-1.223.692L10.441,2.4,5.56,14.416Z" transform="translate(28.795 0.001)" fill="#f2eeea"/>
        <path id="Контур_2" data-name="Контур 2" d="M17.275,21.109A7.152,7.152,0,0,1,21.439,14.6a16.617,16.617,0,0,1,7.409-1.607c1.693-.025,3.392.2,5.091.161a11.6,11.6,0,0,0,2.465-.612,8.88,8.88,0,0,0-1.026-2.2c-3.151-3.658-7.328-5.271-12.018-5.716a13.322,13.322,0,0,0-10.69,3.238,14.778,14.778,0,0,0-3.806,5.462A49.511,49.511,0,0,1,4.348,7.757a5.128,5.128,0,0,0-.933-1.1,21.694,21.694,0,0,1,8.422-3.72c8.027-1.749,15.9-.686,23.567,2a21.492,21.492,0,0,1,9.788,6.389A7.647,7.647,0,0,1,47.286,16.7,3.767,3.767,0,0,1,42.38,20.38a29.6,29.6,0,0,1-3.157-1.131c-2.465-.958-4.881-2.082-7.4-2.867a16.114,16.114,0,0,0-9.052-.34,4.735,4.735,0,0,0-3.7,3.967l-.025.154" transform="translate(17.686 10.781)" fill="#f2eeea"/>
        <path id="Контур_3" data-name="Контур 3" d="M34.961,5.161a6.861,6.861,0,0,1-1.9,5.907,24.952,24.952,0,0,1-4.572,4.171c-3.961,2.57-8.039,4.962-12.148,7.279A44.93,44.93,0,0,0,6.29,29.939C2.206,34.085-.241,38.929.019,44.9c.2,4.566,1.835,8.422,5.969,10.7a19.772,19.772,0,0,0,6.006,2.113c7.384,1.279,14.311-.346,20.879-3.782a64.782,64.782,0,0,0,13.18-9.707,4.22,4.22,0,0,0,.636-.741s-.192-1.619-.315-1.514a56.591,56.591,0,0,1-14.249,8.62,17.258,17.258,0,0,1-11.888.488C13.81,49.094,10.9,43.23,13.149,36.89a18.6,18.6,0,0,1,4.511-7.081c2.459-2.428,5.061-4.727,7.73-6.933,3.12-2.583,6.228-5.159,8.583-8.515a13.212,13.212,0,0,0,2.756-8.255" transform="translate(0 26.729)" fill="#f2eeea"/>
        <path id="Контур_4" data-name="Контур 4" d="M16.48,12.042l-9.028,7.52.321-2.255,9.442-7.384Z" transform="translate(38.599 51.389)" fill="#f2eeea"/>
        <path id="Контур_5" data-name="Контур 5" d="M7.475,4.964a9.44,9.44,0,0,0-.043,2.478L5.67,6.274l-.012-.111" transform="translate(29.303 25.709)" fill="#f2eeea"/>
      </g>
    </g>
  </g>
</svg>
